<svg xmlns="http://www.w3.org/2000/svg" xmlns:xlink="http://www.w3.org/1999/xlink" width="500" zoomAndPan="magnify" viewBox="0 0 375 374.999991" height="500" preserveAspectRatio="xMidYMid meet" version="1.0"><defs><g/><clipPath id="45ccb2b025"><path d="M 121.6875 92 L 253.6875 92 L 253.6875 241.78125 L 121.6875 241.78125 Z M 121.6875 92 " clip-rule="nonzero"/></clipPath><clipPath id="c24914cd19"><path d="M 142.273438 114 L 233 114 L 233 219 L 142.273438 219 Z M 142.273438 114 " clip-rule="nonzero"/></clipPath></defs><rect x="-37.5" width="450" fill="#ffffff" y="-37.499999" height="449.999989" fill-opacity="1"/><rect x="-37.5" width="450" fill="#000000" y="-37.499999" height="449.999989" fill-opacity="1"/><g clip-path="url(#45ccb2b025)"><path fill="#f7960f" d="M 245.324219 134.855469 L 184.464844 100.613281 L 189.03125 100.570312 L 128.617188 136.113281 L 130.875 132.167969 L 130.84375 202.578125 L 128.523438 198.59375 L 189.117188 232.957031 L 184.625 232.941406 L 246.472656 198.460938 L 244.121094 202.53125 L 242.992188 130.9375 L 245.324219 134.855469 M 249.816406 126.875 C 251.238281 127.671875 252.125 129.164062 252.152344 130.792969 L 253.28125 202.386719 C 253.304688 204.074219 252.402344 205.636719 250.929688 206.457031 L 189.085938 240.941406 C 187.691406 241.71875 185.988281 241.710938 184.597656 240.921875 L 124.003906 206.558594 C 122.570312 205.746094 121.683594 204.222656 121.683594 202.574219 L 121.714844 132.164062 C 121.714844 130.539062 122.574219 129.039062 123.972656 128.21875 L 184.386719 92.675781 C 185.792969 91.847656 187.535156 91.832031 188.957031 92.632812 Z M 249.816406 126.875 " fill-opacity="1" fill-rule="nonzero"/></g><g clip-path="url(#c24914cd19)"><path fill="#c6a264" d="M 168.375 203.980469 C 167.722656 201.277344 167.445312 198.484375 167.507812 195.628906 C 167.570312 192.835938 167.972656 190.011719 168.65625 187.25 C 169.121094 185.324219 169.710938 183.402344 170.425781 181.539062 C 169.152344 182.035156 167.847656 182.5 166.542969 182.902344 C 164.246094 183.617188 161.949219 184.113281 159.683594 184.332031 C 157.511719 184.550781 155.339844 184.457031 153.261719 184.082031 C 152.886719 183.152344 152.546875 182.191406 152.234375 181.257812 C 154.5 181.878906 156.984375 182.066406 159.46875 181.816406 C 161.546875 181.632812 163.6875 181.132812 165.800781 180.484375 C 167.941406 179.832031 170.113281 178.960938 172.253906 178 L 175.296875 176.632812 L 173.933594 179.675781 C 172.753906 182.3125 171.789062 185.078125 171.105469 187.839844 C 170.488281 190.445312 170.113281 193.085938 170.050781 195.691406 C 169.988281 198.421875 170.300781 201.15625 170.953125 203.761719 C 171.105469 204.414062 171.292969 205.066406 171.511719 205.6875 C 170.425781 205.160156 169.398438 204.601562 168.4375 203.949219 Z M 187.496094 119.089844 L 184.238281 123.714844 L 183.585938 124.675781 L 182.589844 124.085938 L 180.792969 123.03125 L 183.242188 129.300781 C 183.738281 129.144531 184.207031 129.023438 184.734375 128.929688 C 185.632812 128.742188 186.5625 128.679688 187.496094 128.679688 C 188.425781 128.679688 189.359375 128.773438 190.257812 128.929688 C 190.753906 129.023438 191.25 129.144531 191.746094 129.300781 L 194.199219 123.03125 L 192.398438 124.085938 L 191.40625 124.675781 L 190.753906 123.714844 Z M 182.839844 121.324219 L 186.472656 116.203125 L 187.496094 114.742188 L 188.519531 116.203125 L 192.152344 121.324219 L 196.09375 118.996094 L 199.226562 117.164062 L 197.894531 120.546875 L 193.640625 131.347656 L 193.175781 132.527344 L 191.996094 132.0625 C 191.28125 131.785156 190.539062 131.566406 189.792969 131.410156 C 189.046875 131.289062 188.269531 131.195312 187.464844 131.195312 C 186.65625 131.195312 185.882812 131.257812 185.136719 131.410156 C 184.390625 131.566406 183.648438 131.785156 182.933594 132.0625 L 181.753906 132.527344 L 181.289062 131.347656 L 177.035156 120.546875 L 175.699219 117.164062 L 178.835938 118.996094 L 182.777344 121.324219 Z M 180.976562 184.519531 C 183.117188 184.332031 185.292969 184.238281 187.496094 184.238281 C 189.699219 184.238281 191.871094 184.332031 194.011719 184.519531 C 195.160156 187.34375 195.96875 190.230469 196.339844 193.023438 C 193.453125 192.648438 190.507812 192.464844 187.496094 192.464844 C 184.484375 192.464844 181.535156 192.648438 178.648438 193.023438 C 179.023438 190.261719 179.828125 187.375 180.976562 184.519531 Z M 192.835938 181.910156 C 191.066406 181.785156 189.296875 181.722656 187.496094 181.722656 C 185.695312 181.722656 183.925781 181.785156 182.15625 181.910156 C 183.554688 179.054688 185.292969 176.292969 187.308594 173.777344 L 187.496094 174.027344 L 187.683594 173.777344 C 189.699219 176.292969 191.4375 179.054688 192.835938 181.910156 Z M 178.433594 195.597656 C 181.382812 195.195312 184.421875 194.976562 187.496094 194.976562 C 190.566406 194.976562 193.578125 195.195312 196.558594 195.597656 L 196.558594 195.910156 C 196.621094 198.390625 196.28125 201 195.347656 203.699219 C 192.773438 203.359375 190.164062 203.171875 187.496094 203.171875 C 184.828125 203.171875 182.21875 203.359375 179.644531 203.699219 C 178.710938 201 178.371094 198.359375 178.433594 195.910156 Z M 180.605469 206.121094 C 182.871094 205.839844 185.136719 205.6875 187.496094 205.6875 C 189.824219 205.6875 192.121094 205.839844 194.386719 206.121094 C 194.167969 206.585938 193.921875 207.050781 193.671875 207.515625 C 192.246094 210.125 190.257812 212.792969 187.496094 215.464844 C 184.734375 212.792969 182.746094 210.125 181.320312 207.515625 C 181.070312 207.050781 180.824219 206.585938 180.605469 206.121094 Z M 187.496094 135.941406 C 185.757812 135.941406 184.019531 136.59375 182.683594 137.898438 L 182.621094 137.960938 C 181.289062 139.296875 180.605469 141.0625 180.605469 142.832031 C 180.605469 144.601562 181.289062 146.371094 182.621094 147.707031 C 183.800781 148.886719 185.476562 150.160156 187.496094 151.429688 C 189.480469 150.160156 191.1875 148.886719 192.367188 147.707031 C 193.703125 146.371094 194.386719 144.601562 194.386719 142.832031 C 194.386719 141.0625 193.703125 139.296875 192.367188 137.960938 L 192.304688 137.898438 C 190.972656 136.59375 189.234375 135.941406 187.496094 135.941406 Z M 185.136719 152.859375 C 183.429688 151.710938 181.941406 150.5625 180.851562 149.476562 C 179.023438 147.644531 178.121094 145.222656 178.121094 142.832031 C 178.121094 140.476562 178.992188 138.148438 180.730469 136.316406 L 180.851562 136.191406 C 182.683594 134.359375 185.105469 133.460938 187.496094 133.460938 C 189.917969 133.460938 192.304688 134.359375 194.136719 136.191406 L 194.261719 136.316406 C 196 138.117188 196.867188 140.476562 196.867188 142.832031 C 196.867188 145.253906 195.96875 147.644531 194.136719 149.476562 C 193.050781 150.5625 191.59375 151.710938 189.855469 152.859375 C 190.507812 153.230469 191.1875 153.636719 191.902344 154.007812 C 192.863281 154.535156 193.859375 155.0625 194.882812 155.589844 L 230.886719 136.75 L 232.71875 135.789062 L 232.71875 137.867188 C 232.71875 141.125 231.878906 145.566406 230.171875 149.847656 C 228.839844 153.167969 227.007812 156.460938 224.648438 159.066406 C 225.207031 159.59375 225.671875 160.183594 226.074219 160.773438 C 227.195312 162.417969 227.8125 164.3125 227.9375 166.144531 C 228.0625 168.003906 227.628906 169.867188 226.695312 171.480469 C 224.957031 174.429688 221.421875 176.480469 216.113281 175.953125 C 209.8125 175.363281 202.269531 171.542969 194.136719 166.703125 C 192.398438 168.222656 190.785156 169.929688 189.296875 171.730469 C 195.101562 178.777344 198.917969 187.933594 199.105469 195.816406 C 199.195312 199.851562 198.328125 204.195312 195.90625 208.664062 C 194.074219 212.019531 191.375 215.433594 187.527344 218.816406 C 183.679688 215.433594 180.976562 212.019531 179.144531 208.664062 C 176.695312 204.195312 175.855469 199.820312 175.949219 195.816406 C 176.136719 187.933594 179.921875 178.777344 185.757812 171.730469 C 184.265625 169.929688 182.652344 168.253906 180.914062 166.703125 C 172.785156 171.542969 165.242188 175.363281 158.941406 175.953125 C 153.632812 176.449219 150.09375 174.429688 148.355469 171.480469 C 147.425781 169.898438 146.992188 168.035156 147.113281 166.144531 C 147.207031 164.28125 147.828125 162.417969 148.976562 160.773438 C 149.378906 160.183594 149.878906 159.59375 150.40625 159.066406 C 148.046875 156.429688 146.214844 153.167969 144.878906 149.847656 C 143.171875 145.535156 142.304688 141.125 142.335938 137.867188 L 142.335938 135.789062 L 144.167969 136.75 L 180.171875 155.589844 C 181.195312 155.0625 182.1875 154.535156 183.148438 154.007812 C 183.832031 153.636719 184.515625 153.230469 185.199219 152.859375 Z M 187.496094 154.378906 C 186.472656 155 185.414062 155.621094 184.296875 156.242188 C 183.800781 156.519531 183.304688 156.769531 182.808594 157.050781 L 187.496094 159.5 L 192.183594 157.050781 C 191.6875 156.769531 191.1875 156.519531 190.691406 156.242188 C 189.574219 155.621094 188.519531 155 187.496094 154.378906 Z M 187.496094 162.667969 C 186.035156 163.566406 184.578125 164.46875 183.117188 165.367188 C 184.640625 166.765625 186.066406 168.253906 187.371094 169.835938 L 187.464844 169.742188 L 187.558594 169.835938 C 188.890625 168.253906 190.289062 166.765625 191.808594 165.367188 C 190.382812 164.5 188.921875 163.597656 187.433594 162.667969 Z M 194.914062 158.414062 C 196.1875 159.066406 197.488281 159.6875 198.761719 160.277344 C 197.054688 161.269531 195.410156 162.386719 193.890625 163.628906 C 192.523438 162.820312 191.15625 161.984375 189.792969 161.113281 Z M 201.648438 161.582031 C 203.292969 162.324219 204.90625 162.976562 206.335938 163.566406 C 208.632812 164.46875 210.804688 164.902344 212.824219 164.871094 C 216.765625 164.871094 220.117188 163.289062 222.878906 160.867188 C 223.3125 161.300781 223.6875 161.734375 224.027344 162.203125 C 224.898438 163.472656 225.363281 164.902344 225.457031 166.296875 C 225.546875 167.695312 225.238281 169.0625 224.554688 170.210938 C 223.25 172.382812 220.550781 173.871094 216.359375 173.46875 C 210.710938 172.941406 203.789062 169.464844 196.21875 164.996094 C 197.925781 163.691406 199.722656 162.542969 201.648438 161.550781 Z M 207.265625 161.207031 C 206.460938 160.898438 205.621094 160.554688 204.753906 160.183594 C 207.144531 159.253906 209.65625 158.570312 212.386719 158.199219 C 215.894531 157.699219 218.6875 158.230469 220.800781 159.347656 C 218.535156 161.175781 215.894531 162.355469 212.855469 162.355469 C 211.148438 162.355469 209.285156 162.015625 207.296875 161.207031 Z M 201.585938 158.789062 C 200.3125 158.199219 199.011719 157.609375 197.675781 156.957031 L 230.109375 139.976562 C 229.832031 142.617188 229.085938 145.78125 227.84375 148.917969 C 226.605469 152.050781 224.867188 155.09375 222.660156 157.515625 C 220.054688 155.902344 216.484375 155.0625 212.015625 155.683594 C 208.230469 156.210938 204.753906 157.296875 201.585938 158.789062 Z M 206.613281 203.980469 C 207.234375 201.277344 207.546875 198.484375 207.484375 195.628906 C 207.421875 192.835938 207.019531 190.011719 206.335938 187.25 C 205.871094 185.324219 205.28125 183.402344 204.566406 181.539062 C 205.839844 182.035156 207.144531 182.5 208.445312 182.902344 C 210.742188 183.617188 213.039062 184.113281 215.304688 184.332031 C 217.476562 184.550781 219.652344 184.457031 221.730469 184.082031 C 222.101562 183.152344 222.445312 182.191406 222.753906 181.257812 C 220.488281 181.878906 218.007812 182.066406 215.523438 181.816406 C 213.445312 181.632812 211.300781 181.132812 209.191406 180.484375 C 207.050781 179.832031 204.875 178.960938 202.734375 178 L 199.695312 176.632812 L 201.058594 179.675781 C 202.238281 182.3125 203.199219 185.078125 203.882812 187.839844 C 204.503906 190.445312 204.875 193.085938 204.9375 195.691406 C 205 198.421875 204.691406 201.15625 204.039062 203.761719 C 203.882812 204.414062 203.699219 205.066406 203.480469 205.6875 C 204.566406 205.160156 205.589844 204.601562 206.554688 203.949219 Z M 180.109375 158.414062 C 178.835938 159.066406 177.53125 159.6875 176.257812 160.277344 C 177.96875 161.269531 179.613281 162.386719 181.132812 163.628906 C 182.5 162.820312 183.863281 161.984375 185.230469 161.113281 Z M 173.375 161.582031 C 171.726562 162.324219 170.113281 162.976562 168.6875 163.566406 C 166.390625 164.46875 164.21875 164.902344 162.199219 164.871094 C 158.257812 164.871094 154.90625 163.289062 152.144531 160.867188 C 151.707031 161.300781 151.335938 161.734375 150.996094 162.203125 C 150.125 163.472656 149.660156 164.902344 149.566406 166.296875 C 149.472656 167.695312 149.785156 169.0625 150.46875 170.210938 C 151.769531 172.382812 154.472656 173.871094 158.660156 173.46875 C 164.308594 172.941406 171.261719 169.464844 178.804688 164.996094 C 177.097656 163.691406 175.296875 162.542969 173.375 161.550781 Z M 167.753906 161.207031 C 168.5625 160.898438 169.398438 160.554688 170.269531 160.183594 C 167.878906 159.253906 165.367188 158.570312 162.632812 158.199219 C 159.125 157.699219 156.332031 158.230469 154.222656 159.347656 C 156.488281 161.175781 159.125 162.355469 162.167969 162.355469 C 163.875 162.355469 165.738281 162.015625 167.722656 161.207031 Z M 173.433594 158.789062 C 174.707031 158.199219 176.011719 157.609375 177.347656 156.957031 L 144.910156 139.976562 C 145.191406 142.617188 145.933594 145.78125 147.175781 148.917969 C 148.417969 152.050781 150.15625 155.09375 152.359375 157.515625 C 154.96875 155.902344 158.535156 155.0625 163.007812 155.683594 C 166.792969 156.210938 170.269531 157.296875 173.433594 158.789062 Z M 173.433594 158.789062 " fill-opacity="1" fill-rule="evenodd"/></g><g fill="#ffffff" fill-opacity="1"><g transform="translate(120.720734, 274.238053)"><g><path d="M 31.640625 0 L 27.75 0 C 27.789062 -1.625 27.828125 -3.378906 27.859375 -5.265625 C 27.898438 -7.160156 27.921875 -9.101562 27.921875 -11.09375 C 24.523438 -11.207031 21.066406 -11.265625 17.546875 -11.265625 C 14.023438 -11.265625 10.5625 -11.195312 7.15625 -11.0625 C 7.15625 -9.070312 7.171875 -7.128906 7.203125 -5.234375 C 7.242188 -3.347656 7.285156 -1.601562 7.328125 0 L 3.46875 0 C 3.519531 -1.882812 3.5625 -3.941406 3.59375 -6.171875 C 3.632812 -8.410156 3.65625 -10.695312 3.65625 -13.03125 C 3.65625 -15.375 3.632812 -17.660156 3.59375 -19.890625 C 3.5625 -22.128906 3.519531 -24.191406 3.46875 -26.078125 C 4.820312 -25.890625 6.085938 -25.890625 7.265625 -26.078125 C 7.242188 -24.304688 7.210938 -22.363281 7.171875 -20.25 C 7.140625 -18.132812 7.125 -15.992188 7.125 -13.828125 C 10.5 -13.703125 13.953125 -13.640625 17.484375 -13.640625 C 21.015625 -13.640625 24.492188 -13.6875 27.921875 -13.78125 C 27.921875 -15.976562 27.898438 -18.128906 27.859375 -20.234375 C 27.828125 -22.335938 27.789062 -24.285156 27.75 -26.078125 C 29.09375 -25.890625 30.367188 -25.890625 31.578125 -26.078125 C 31.523438 -24.191406 31.488281 -22.128906 31.46875 -19.890625 C 31.445312 -17.660156 31.4375 -15.367188 31.4375 -13.015625 C 31.4375 -10.671875 31.453125 -8.382812 31.484375 -6.15625 C 31.523438 -3.9375 31.578125 -1.882812 31.640625 0 Z M 31.640625 0 "/></g></g></g><g fill="#ffffff" fill-opacity="1"><g transform="translate(162.893791, 274.238053)"><g><path d="M 3.859375 0 C 3.910156 -1.882812 3.953125 -3.941406 3.984375 -6.171875 C 4.023438 -8.410156 4.046875 -10.695312 4.046875 -13.03125 C 4.046875 -15.375 4.023438 -17.660156 3.984375 -19.890625 C 3.953125 -22.128906 3.910156 -24.191406 3.859375 -26.078125 C 5.273438 -25.890625 6.597656 -25.890625 7.828125 -26.078125 C 7.785156 -24.191406 7.75 -22.128906 7.71875 -19.890625 C 7.695312 -17.660156 7.6875 -15.367188 7.6875 -13.015625 C 7.6875 -10.671875 7.703125 -8.382812 7.734375 -6.15625 C 7.773438 -3.9375 7.832031 -1.882812 7.90625 0 Z M 3.859375 0 "/></g></g></g><g fill="#ffffff" fill-opacity="1"><g transform="translate(181.748964, 274.238053)"><g><path d="M 28.03125 -26.078125 C 29.375 -25.941406 30.722656 -25.941406 32.078125 -26.078125 C 29.804688 -21.640625 27.65625 -17.300781 25.625 -13.0625 C 23.59375 -8.820312 21.535156 -4.46875 19.453125 0 L 13.640625 0 C 11.628906 -4.46875 9.597656 -8.820312 7.546875 -13.0625 C 5.492188 -17.300781 3.34375 -21.640625 1.09375 -26.078125 C 2.507812 -25.941406 3.914062 -25.941406 5.3125 -26.078125 C 6.207031 -24.117188 7.144531 -22.0625 8.125 -19.90625 C 9.113281 -17.757812 10.101562 -15.625 11.09375 -13.5 C 12.082031 -11.375 13.039062 -9.347656 13.96875 -7.421875 C 14.90625 -5.492188 15.773438 -3.765625 16.578125 -2.234375 C 17.390625 -3.765625 18.265625 -5.492188 19.203125 -7.421875 C 20.148438 -9.347656 21.125 -11.375 22.125 -13.5 C 23.132812 -15.625 24.140625 -17.757812 25.140625 -19.90625 C 26.148438 -22.0625 27.113281 -24.117188 28.03125 -26.078125 Z M 28.03125 -26.078125 "/></g></g></g><g fill="#ffffff" fill-opacity="1"><g transform="translate(222.008401, 274.238053)"><g><path d="M 3.46875 0 C 3.519531 -1.988281 3.5625 -4.113281 3.59375 -6.375 C 3.632812 -8.644531 3.65625 -10.941406 3.65625 -13.265625 C 3.65625 -15.597656 3.632812 -17.863281 3.59375 -20.0625 C 3.5625 -22.257812 3.519531 -24.265625 3.46875 -26.078125 C 4.695312 -26.035156 6.160156 -25.992188 7.859375 -25.953125 C 9.566406 -25.921875 11.390625 -25.898438 13.328125 -25.890625 C 15.265625 -25.878906 17.226562 -25.875 19.21875 -25.875 C 21.21875 -25.875 23.132812 -25.882812 24.96875 -25.90625 C 26.800781 -25.925781 28.4375 -25.960938 29.875 -26.015625 C 29.800781 -24.921875 29.800781 -23.832031 29.875 -22.75 C 28.3125 -22.863281 26.597656 -22.972656 24.734375 -23.078125 C 22.867188 -23.191406 20.9375 -23.28125 18.9375 -23.34375 C 16.945312 -23.414062 14.957031 -23.460938 12.96875 -23.484375 C 10.988281 -23.515625 9.097656 -23.53125 7.296875 -23.53125 C 7.273438 -21.945312 7.257812 -20.375 7.25 -18.8125 C 7.238281 -17.257812 7.234375 -15.691406 7.234375 -14.109375 C 9.492188 -14.078125 11.800781 -14.070312 14.15625 -14.09375 C 16.507812 -14.125 18.8125 -14.160156 21.0625 -14.203125 C 23.320312 -14.253906 25.410156 -14.304688 27.328125 -14.359375 C 27.253906 -13.410156 27.253906 -12.472656 27.328125 -11.546875 C 25.390625 -11.597656 23.289062 -11.644531 21.03125 -11.6875 C 18.769531 -11.738281 16.460938 -11.769531 14.109375 -11.78125 C 11.765625 -11.789062 9.472656 -11.785156 7.234375 -11.765625 C 7.234375 -10.328125 7.242188 -8.820312 7.265625 -7.25 C 7.285156 -5.675781 7.304688 -4.125 7.328125 -2.59375 C 9.148438 -2.59375 11.046875 -2.601562 13.015625 -2.625 C 14.992188 -2.644531 16.972656 -2.691406 18.953125 -2.765625 C 20.941406 -2.835938 22.867188 -2.921875 24.734375 -3.015625 C 26.597656 -3.109375 28.3125 -3.210938 29.875 -3.328125 C 29.800781 -2.222656 29.800781 -1.113281 29.875 0 Z M 3.46875 0 "/></g></g></g><g fill="#ffffff" fill-opacity="1"><g transform="translate(91.525304, 295.64922)"><g><path d="M 5.40625 0.109375 C 4.5 0.109375 3.679688 -0.0859375 2.953125 -0.484375 C 2.222656 -0.890625 1.648438 -1.441406 1.234375 -2.140625 C 0.828125 -2.847656 0.625 -3.644531 0.625 -4.53125 C 0.625 -5.40625 0.828125 -6.191406 1.234375 -6.890625 C 1.648438 -7.597656 2.222656 -8.148438 2.953125 -8.546875 C 3.691406 -8.953125 4.515625 -9.15625 5.421875 -9.15625 C 6.128906 -9.15625 6.773438 -9.035156 7.359375 -8.796875 C 7.941406 -8.566406 8.441406 -8.21875 8.859375 -7.75 L 8.015625 -6.9375 C 7.335938 -7.65625 6.488281 -8.015625 5.46875 -8.015625 C 4.800781 -8.015625 4.191406 -7.863281 3.640625 -7.5625 C 3.097656 -7.257812 2.675781 -6.84375 2.375 -6.3125 C 2.070312 -5.78125 1.921875 -5.1875 1.921875 -4.53125 C 1.921875 -3.875 2.070312 -3.28125 2.375 -2.75 C 2.675781 -2.21875 3.097656 -1.800781 3.640625 -1.5 C 4.191406 -1.195312 4.800781 -1.046875 5.46875 -1.046875 C 6.476562 -1.046875 7.328125 -1.410156 8.015625 -2.140625 L 8.859375 -1.3125 C 8.441406 -0.851562 7.9375 -0.5 7.34375 -0.25 C 6.757812 -0.0078125 6.113281 0.109375 5.40625 0.109375 Z M 5.40625 0.109375 "/></g></g></g><g fill="#ffffff" fill-opacity="1"><g transform="translate(111.230054, 295.64922)"><g><path d="M 5.453125 0.109375 C 4.535156 0.109375 3.707031 -0.0859375 2.96875 -0.484375 C 2.238281 -0.890625 1.664062 -1.445312 1.25 -2.15625 C 0.832031 -2.863281 0.625 -3.65625 0.625 -4.53125 C 0.625 -5.394531 0.832031 -6.179688 1.25 -6.890625 C 1.664062 -7.597656 2.238281 -8.148438 2.96875 -8.546875 C 3.707031 -8.953125 4.535156 -9.15625 5.453125 -9.15625 C 6.359375 -9.15625 7.175781 -8.953125 7.90625 -8.546875 C 8.632812 -8.148438 9.207031 -7.597656 9.625 -6.890625 C 10.039062 -6.191406 10.25 -5.40625 10.25 -4.53125 C 10.25 -3.644531 10.039062 -2.847656 9.625 -2.140625 C 9.207031 -1.441406 8.632812 -0.890625 7.90625 -0.484375 C 7.175781 -0.0859375 6.359375 0.109375 5.453125 0.109375 Z M 5.453125 -1.046875 C 6.109375 -1.046875 6.703125 -1.195312 7.234375 -1.5 C 7.765625 -1.800781 8.179688 -2.21875 8.484375 -2.75 C 8.796875 -3.28125 8.953125 -3.875 8.953125 -4.53125 C 8.953125 -5.1875 8.796875 -5.78125 8.484375 -6.3125 C 8.179688 -6.84375 7.765625 -7.257812 7.234375 -7.5625 C 6.703125 -7.863281 6.109375 -8.015625 5.453125 -8.015625 C 4.785156 -8.015625 4.179688 -7.863281 3.640625 -7.5625 C 3.097656 -7.257812 2.675781 -6.84375 2.375 -6.3125 C 2.070312 -5.78125 1.921875 -5.1875 1.921875 -4.53125 C 1.921875 -3.875 2.070312 -3.28125 2.375 -2.75 C 2.675781 -2.21875 3.097656 -1.800781 3.640625 -1.5 C 4.179688 -1.195312 4.785156 -1.046875 5.453125 -1.046875 Z M 5.453125 -1.046875 "/></g></g></g><g fill="#ffffff" fill-opacity="1"><g transform="translate(132.44849, 295.64922)"><g><path d="M 9.140625 -9.0625 L 9.140625 0 L 8.09375 0 L 2.65625 -6.75 L 2.65625 0 L 1.359375 0 L 1.359375 -9.0625 L 2.421875 -9.0625 L 7.859375 -2.296875 L 7.859375 -9.0625 Z M 9.140625 -9.0625 "/></g></g></g><g fill="#ffffff" fill-opacity="1"><g transform="translate(153.304674, 295.64922)"><g><path d="M 4 0.109375 C 3.3125 0.109375 2.648438 0.00390625 2.015625 -0.203125 C 1.390625 -0.421875 0.894531 -0.695312 0.53125 -1.03125 L 1.015625 -2.046875 C 1.359375 -1.734375 1.796875 -1.476562 2.328125 -1.28125 C 2.867188 -1.09375 3.425781 -1 4 -1 C 4.75 -1 5.304688 -1.125 5.671875 -1.375 C 6.046875 -1.632812 6.234375 -1.972656 6.234375 -2.390625 C 6.234375 -2.703125 6.128906 -2.953125 5.921875 -3.140625 C 5.722656 -3.335938 5.472656 -3.488281 5.171875 -3.59375 C 4.878906 -3.695312 4.460938 -3.816406 3.921875 -3.953125 C 3.234375 -4.109375 2.679688 -4.269531 2.265625 -4.4375 C 1.847656 -4.601562 1.488281 -4.851562 1.1875 -5.1875 C 0.894531 -5.53125 0.75 -5.992188 0.75 -6.578125 C 0.75 -7.054688 0.875 -7.488281 1.125 -7.875 C 1.382812 -8.269531 1.769531 -8.582031 2.28125 -8.8125 C 2.800781 -9.039062 3.445312 -9.15625 4.21875 -9.15625 C 4.75 -9.15625 5.273438 -9.085938 5.796875 -8.953125 C 6.316406 -8.816406 6.757812 -8.617188 7.125 -8.359375 L 6.703125 -7.328125 C 6.316406 -7.566406 5.910156 -7.75 5.484375 -7.875 C 5.054688 -8 4.632812 -8.0625 4.21875 -8.0625 C 3.488281 -8.0625 2.9375 -7.925781 2.5625 -7.65625 C 2.195312 -7.394531 2.015625 -7.050781 2.015625 -6.625 C 2.015625 -6.3125 2.117188 -6.054688 2.328125 -5.859375 C 2.535156 -5.671875 2.789062 -5.519531 3.09375 -5.40625 C 3.40625 -5.300781 3.820312 -5.191406 4.34375 -5.078125 C 5.03125 -4.910156 5.578125 -4.742188 5.984375 -4.578125 C 6.398438 -4.410156 6.753906 -4.160156 7.046875 -3.828125 C 7.347656 -3.492188 7.5 -3.039062 7.5 -2.46875 C 7.5 -2 7.367188 -1.566406 7.109375 -1.171875 C 6.859375 -0.773438 6.46875 -0.460938 5.9375 -0.234375 C 5.414062 -0.00390625 4.769531 0.109375 4 0.109375 Z M 4 0.109375 "/></g></g></g><g fill="#ffffff" fill-opacity="1"><g transform="translate(171.689794, 295.64922)"><g><path d="M 5.109375 0.109375 C 3.898438 0.109375 2.957031 -0.234375 2.28125 -0.921875 C 1.613281 -1.617188 1.28125 -2.613281 1.28125 -3.90625 L 1.28125 -9.0625 L 2.578125 -9.0625 L 2.578125 -3.953125 C 2.578125 -2.015625 3.425781 -1.046875 5.125 -1.046875 C 5.945312 -1.046875 6.578125 -1.285156 7.015625 -1.765625 C 7.460938 -2.242188 7.6875 -2.972656 7.6875 -3.953125 L 7.6875 -9.0625 L 8.9375 -9.0625 L 8.9375 -3.90625 C 8.9375 -2.601562 8.597656 -1.609375 7.921875 -0.921875 C 7.253906 -0.234375 6.316406 0.109375 5.109375 0.109375 Z M 5.109375 0.109375 "/></g></g></g><g fill="#ffffff" fill-opacity="1"><g transform="translate(192.274298, 295.64922)"><g><path d="M 1.359375 -9.0625 L 2.65625 -9.0625 L 2.65625 -1.125 L 7.5625 -1.125 L 7.5625 0 L 1.359375 0 Z M 1.359375 -9.0625 "/></g></g></g><g fill="#ffffff" fill-opacity="1"><g transform="translate(210.310094, 295.64922)"><g><path d="M 3.15625 -7.9375 L 0.046875 -7.9375 L 0.046875 -9.0625 L 7.546875 -9.0625 L 7.546875 -7.9375 L 4.4375 -7.9375 L 4.4375 0 L 3.15625 0 Z M 3.15625 -7.9375 "/></g></g></g><g fill="#ffffff" fill-opacity="1"><g transform="translate(228.255333, 295.64922)"><g><path d="M 1.359375 -9.0625 L 2.65625 -9.0625 L 2.65625 0 L 1.359375 0 Z M 1.359375 -9.0625 "/></g></g></g><g fill="#ffffff" fill-opacity="1"><g transform="translate(242.616866, 295.64922)"><g><path d="M 9.140625 -9.0625 L 9.140625 0 L 8.09375 0 L 2.65625 -6.75 L 2.65625 0 L 1.359375 0 L 1.359375 -9.0625 L 2.421875 -9.0625 L 7.859375 -2.296875 L 7.859375 -9.0625 Z M 9.140625 -9.0625 "/></g></g></g><g fill="#ffffff" fill-opacity="1"><g transform="translate(263.473047, 295.64922)"><g><path d="M 7.640625 -4.578125 L 8.875 -4.578125 L 8.875 -1.046875 C 8.425781 -0.671875 7.90625 -0.382812 7.3125 -0.1875 C 6.71875 0.0078125 6.097656 0.109375 5.453125 0.109375 C 4.535156 0.109375 3.707031 -0.0859375 2.96875 -0.484375 C 2.238281 -0.890625 1.664062 -1.441406 1.25 -2.140625 C 0.832031 -2.847656 0.625 -3.644531 0.625 -4.53125 C 0.625 -5.40625 0.832031 -6.195312 1.25 -6.90625 C 1.664062 -7.613281 2.242188 -8.164062 2.984375 -8.5625 C 3.722656 -8.957031 4.550781 -9.15625 5.46875 -9.15625 C 6.195312 -9.15625 6.851562 -9.035156 7.4375 -8.796875 C 8.03125 -8.566406 8.535156 -8.222656 8.953125 -7.765625 L 8.15625 -6.953125 C 7.425781 -7.660156 6.550781 -8.015625 5.53125 -8.015625 C 4.832031 -8.015625 4.207031 -7.863281 3.65625 -7.5625 C 3.113281 -7.257812 2.6875 -6.84375 2.375 -6.3125 C 2.070312 -5.789062 1.921875 -5.195312 1.921875 -4.53125 C 1.921875 -3.875 2.070312 -3.28125 2.375 -2.75 C 2.6875 -2.21875 3.113281 -1.800781 3.65625 -1.5 C 4.207031 -1.195312 4.828125 -1.046875 5.515625 -1.046875 C 6.328125 -1.046875 7.035156 -1.238281 7.640625 -1.625 Z M 7.640625 -4.578125 "/></g></g></g><g fill="#ffffff" fill-opacity="1"><g transform="translate(283.818264, 295.64922)"><g/></g></g></svg>